<svg xmlns="http://www.w3.org/2000/svg" width="1171.219" height="502.237" viewBox="0 0 1171.219 502.237"><defs><style>.a{opacity:0.03;}.b{fill:none;stroke:#000;stroke-miterlimit:10;stroke-width:20px;}</style></defs><g class="a" transform="translate(-2669.863 -684.664)"><rect class="b" width="1151.219" height="92.494" rx="1.137" transform="translate(2679.863 1084.407)"/><path class="b" d="M3609.96,842.416C3484.4,784.6,3350.1,745.8,3350.1,745.8l-56.539-2.354c-48.066-1.988-94.131,17.5-127.411,52.234a208.252,208.252,0,0,1-150.788,64.35c-98.8,0-181.406-68.587-203.322-160.676l-3.694-.087-42,7.636a73.578,73.578,0,0,0-60.077,65.537l-25.647,274.783h1123.14C3803.761,954.73,3748.7,906.279,3609.96,842.416Z" transform="translate(12.458 37.371)"/><line class="b" x1="101.303" y2="123.325" transform="translate(3270.065 785.087)"/><line class="b" x1="74.405" y2="90.58" transform="translate(3388.986 817.831)"/><line class="b" x1="49.176" y2="59.866" transform="translate(3507.906 848.546)"/><line class="b" y2="89.191" transform="translate(2724.462 1082.939)"/><line class="b" y2="89.191" transform="translate(2770.708 1082.939)"/><line class="b" y2="89.191" transform="translate(2816.955 1082.939)"/><line class="b" y2="89.191" transform="translate(2863.201 1082.939)"/><line class="b" y2="89.191" transform="translate(2909.447 1082.939)"/><line class="b" y2="89.191" transform="translate(2955.697 1082.939)"/><line class="b" y2="89.191" transform="translate(3001.943 1082.939)"/><line class="b" y2="89.191" transform="translate(3048.19 1082.939)"/><line class="b" y2="89.191" transform="translate(3094.436 1082.939)"/><line class="b" y2="89.191" transform="translate(3140.682 1082.939)"/><line class="b" y2="89.191" transform="translate(3186.928 1082.939)"/><line class="b" y2="89.191" transform="translate(3233.179 1082.939)"/><line class="b" y2="89.191" transform="translate(3279.425 1082.939)"/><line class="b" y2="89.191" transform="translate(3325.671 1082.939)"/><line class="b" y2="89.191" transform="translate(3371.917 1082.939)"/><line class="b" y2="89.191" transform="translate(3418.164 1082.939)"/><line class="b" y2="89.191" transform="translate(3464.409 1082.939)"/><line class="b" y2="89.191" transform="translate(3510.66 1082.939)"/><line class="b" y2="89.191" transform="translate(3556.906 1082.939)"/><line class="b" y2="89.191" transform="translate(3603.153 1082.939)"/><line class="b" y2="89.191" transform="translate(3649.399 1082.939)"/><line class="b" y2="89.191" transform="translate(3695.645 1082.939)"/><line class="b" y2="89.191" transform="translate(3741.896 1082.939)"/><line class="b" y2="89.191" transform="translate(3788.142 1082.939)"/><path class="b" d="M2792.357,837.945s-123.333-44.056-79.278-140.956l265.651,88.235" transform="translate(389.618 0)"/></g></svg>