<svg xmlns="http://www.w3.org/2000/svg" width="1186" height="835.161" viewBox="0 0 1186 835.161"><defs><style>.a{opacity:0.03;}.b{fill:#fff;}</style></defs><g class="a" transform="translate(-2132.056 -745.834)"><g transform="translate(2132.056 745.834)"><path d="M3318.056,1371.127,2132.056,1581V955.7l1186-209.869Z" transform="translate(-2132.056 -745.834)"/></g><g transform="translate(2186.505 840.146)"><path class="b" d="M2288.28,1084.235l-24.059,4.245v149.595l-41.095,7.241v-149.6l-21.044,3.717v149.6l-41.112,7.242V1106.681l-23.553,4.154v-44l23.553-4.154V960.368l-23.553,4.154v-44l23.553-4.155v-127.6l41.112-7.252V909.128l21.044-3.717v-127.6l41.095-7.241v127.6l24.059-4.246v44l-24.059,4.245v102.316l24.059-4.245Zm-65.154-32.521V949.409l-21.044,3.717v102.306Z" transform="translate(-2137.417 -613.617)"/><path class="b" d="M2273.033,1197.623l-33.077,38.28-53.636,9.456-32.073-26.244v-94.049l41.092-7.252v84.156l36.1-6.358V1068.555l-77.187-128.834V814.868l31.574-36.93,54.621-9.628,32.086,26.245v93.5l-41.094,7.252V811.7l-36.1,6.368V923.115l77.695,128.753Z" transform="translate(-1983.332 -634.338)"/><path class="b" d="M2285.9,988.552l-32.573,38.2-44.614,7.861v206.805l-41.1,7.241v-467.5l86.208-15.2L2285.9,792.2Zm-41.092-2.1V809.341l-36.1,6.368v177.1Z" transform="translate(-1860.884 -655.929)"/><path class="b" d="M2299.274,1192.989l-32.571,38.2-53.638,9.456-32.073-26.244V810.142l31.579-36.908,54.63-9.639,32.073,26.245Zm-41.092-2.092V806.984l-36.1,6.357v383.914Z" transform="translate(-1738.426 -677.52)"/><path class="b" d="M2312.647,1190.631l-32.583,38.2-85.7,15.113V776.43l86.209-15.193,32.073,26.244Zm-41.092-2.092V804.625l-36.1,6.358V1194.9Z" transform="translate(-1615.976 -699.11)"/><path class="b" d="M2325.985,1219.217l-40.6,7.16-8.513-98.6-21.064,3.718-8.024,101.5-40.594,7.17,42.1-474.935,34.592-6.094Zm-51.128-132.329c-2.5-32.012-6-154.6-8.024-187.244-2.5,33.994-7.007,156.877-9.009,190.25Z" transform="translate(-1498.498 -718.311)"/><path class="b" d="M2338.9,1218.448l-41.1,7.252-21.551-203-15.031,2.651v206.8l-41.092,7.252V771.889l86.2-15.193,32.083,26.234V978.736l-21.053,32.318Zm-41.59-241.267V800.073l-36.1,6.368V983.549Z" transform="translate(-1380.107 -740.699)"/><path class="b" d="M2274.591,1222.621l-41.092,7.241v-467.5l41.092-7.242Z" transform="translate(-1257.648 -755.12)"/></g></g></svg>