<svg xmlns="http://www.w3.org/2000/svg" xmlns:xlink="http://www.w3.org/1999/xlink" width="60.632" height="65.467" viewBox="0 0 60.632 65.467"><defs><style>.a{fill:#ff5100;}.b{clip-path:url(#a);}.c,.d{fill:none;stroke:#fff;stroke-linejoin:round;stroke-width:2px;}.c{stroke-linecap:round;}</style><clipPath id="a"><path class="a" d="M1627.742,1326.042l-60.632,11.116v-54.351l60.632-11.116Z" transform="translate(-918.449 768.309)"/></clipPath></defs><g class="b" transform="translate(-648.661 -2040)"><path class="a" d="M1627.742,1326.042l-60.632,11.116v-54.351l60.632-11.116Z" transform="translate(-918.449 768.309)"/><g transform="translate(-1018.44 1240.5)"><g transform="translate(1665.94 809.5)"><rect class="c" width="44.129" height="57" rx="2.344"/><rect class="c" width="33.097" height="9.194" transform="translate(5.516 5.516)"/><circle class="d" cx="3.677" cy="3.677" r="3.677" transform="translate(5.627 19.306)"/><circle class="d" cx="3.677" cy="3.677" r="3.677" transform="translate(18.498 19.306)"/><circle class="d" cx="3.677" cy="3.677" r="3.677" transform="translate(31.369 19.306)"/><circle class="d" cx="3.677" cy="3.677" r="3.677" transform="translate(5.627 32.177)"/><circle class="d" cx="3.677" cy="3.677" r="3.677" transform="translate(18.498 32.177)"/><circle class="d" cx="3.677" cy="3.677" r="3.677" transform="translate(31.369 32.177)"/><circle class="d" cx="3.677" cy="3.677" r="3.677" transform="translate(5.627 45.048)"/><circle class="d" cx="3.677" cy="3.677" r="3.677" transform="translate(18.498 45.048)"/><circle class="d" cx="3.677" cy="3.677" r="3.677" transform="translate(31.369 45.048)"/><line class="c" y2="1.839" transform="translate(34.935 9.194)"/><line class="c" y2="1.839" transform="translate(23.903 9.194)"/><line class="c" y2="1.839" transform="translate(20.226 9.194)"/><line class="c" transform="translate(29.419 11.032)"/></g></g></g></svg>