<svg xmlns="http://www.w3.org/2000/svg" xmlns:xlink="http://www.w3.org/1999/xlink" width="325" height="244" viewBox="0 0 325 244"><defs><style>.a{fill:#fff;}.b{clip-path:url(#a);}.c{fill:#ff5100;}</style><clipPath id="a"><rect class="a" width="325" height="244" transform="translate(0 27)"/></clipPath></defs><g class="b" transform="translate(0 -27)"><g transform="translate(-71 30)"><path class="a" d="M-124.279,109.6l-395.669,69.29V15.915l395.669-69.29Z" transform="translate(519.948 70.658)"/><g transform="translate(69.129)"><path class="c" d="M101.914,202.513l-309.112,54.7V94.239l309.112-54.7Z" transform="translate(207.198 -39.54)"/><g transform="translate(14.134 24.593)"><path class="a" d="M-159.7,159.189l-6.27,1.108v38.992l-10.711,1.887v-38.99l-5.487.966v38.992l-10.71,1.887V165.043l-6.14,1.08V154.656l6.14-1.084V126.91l-6.14,1.084V116.525l6.14-1.08V82.186l10.71-1.889v33.258l5.487-.966V79.331l10.711-1.891V110.7l6.27-1.106v11.47l-6.27,1.106V148.83l6.27-1.108Zm-16.981-8.472V124.055l-5.487.968v26.663Z" transform="translate(199.02 -36.533)"/><path class="a" d="M-142.287,185.868l-8.622,9.977-13.976,2.464-8.359-6.839V166.958l10.71-1.891V187l9.4-1.657V152.228l-20.115-33.579V86.11l8.226-9.623,14.24-2.513,8.361,6.839v24.371l-10.713,1.891V85.283l-9.4,1.661v27.378l20.248,33.558Z" transform="translate(217.79 -39.057)"/><path class="a" d="M-121.933,128.376l-8.491,9.954-11.627,2.053v53.9l-10.71,1.891V74.323l22.468-3.959,8.359,6.839Zm-10.711-.546V81.672l-9.407,1.657v46.159Z" transform="translate(232.706 -41.686)"/><path class="a" d="M-101.449,178.67l-8.492,9.953-13.976,2.464-8.359-6.842V78.885l8.228-9.623,14.239-2.511,8.361,6.842Zm-10.711-.551V78.062l-9.4,1.657V179.776Z" transform="translate(247.623 -44.317)"/><path class="a" d="M-80.964,175.054l-8.491,9.954-22.337,3.939V67.1l22.468-3.963,8.359,6.84Zm-10.711-.546V74.447l-9.407,1.661V176.165Z" transform="translate(262.54 -46.947)"/><path class="a" d="M-61.181,179.84-71.763,181.7l-2.219-25.7-5.487.966-2.091,26.459L-92.14,185.3-81.168,61.517l9.014-1.59Zm-13.326-34.493c-.653-8.34-1.566-40.288-2.088-48.8-.655,8.861-1.83,40.893-2.352,49.584Z" transform="translate(276.851 -49.286)"/><path class="a" d="M-41.379,176.533l-10.71,1.887-5.618-52.909-3.92.691v53.9l-10.71,1.889V60.141l22.467-3.959,8.361,6.839v51.034L-47,122.476ZM-52.22,113.648V67.49l-9.407,1.657v46.159Z" transform="translate(291.272 -52.014)"/><path class="a" d="M-41.141,175.615l-10.711,1.891V55.657l10.711-1.887Z" transform="translate(306.189 -53.77)"/></g></g></g></g></svg>