<svg xmlns="http://www.w3.org/2000/svg" width="32.833" height="15.967" viewBox="0 0 32.833 15.967">
  <g id="background-sneaker" transform="translate(-2679.038 -695.847)">
    <rect id="Rectangle_144" data-name="Rectangle 144" width="31.183" height="3.505" rx="1.137" transform="translate(2679.863 707.483)" fill="none" stroke="#ff5100" stroke-linecap="round" stroke-miterlimit="10" stroke-width="1.65"/>
    <path id="Path_555" data-name="Path 555" d="M2705.794,703.141a57.356,57.356,0,0,0-7.039-2.617l-1.531-.064a4.527,4.527,0,0,0-3.451,1.415,5.659,5.659,0,0,1-9.592-2.609l-.1,0-1.138.207a1.993,1.993,0,0,0-1.627,1.775l-.695,7.443h30.423C2711.044,706.183,2709.552,704.871,2705.794,703.141Z" transform="translate(-0.4 -1.2)" fill="none" stroke="#ff5100" stroke-linecap="round" stroke-miterlimit="10" stroke-width="1.65"/>
    <line id="Line_37" data-name="Line 37" x1="2.744" y2="3.341" transform="translate(2695.85 700.375)" fill="none" stroke="#ff5100" stroke-linecap="round" stroke-miterlimit="10" stroke-width="1.65"/>
    <line id="Line_38" data-name="Line 38" x1="2.015" y2="2.454" transform="translate(2699.071 701.262)" fill="none" stroke="#ff5100" stroke-linecap="round" stroke-miterlimit="10" stroke-width="1.65"/>
    <line id="Line_39" data-name="Line 39" x1="1.332" y2="1.622" transform="translate(2702.292 702.094)" fill="none" stroke="#ff5100" stroke-linecap="round" stroke-miterlimit="10" stroke-width="1.65"/>
    <path id="Path_556" data-name="Path 556" d="M2706.518,700.974s-4.093-1.246-2.631-3.985l8.817,2.495" transform="translate(-14.191 -0.167)" fill="none" stroke="#ff5100" stroke-linecap="round" stroke-miterlimit="10" stroke-width="1.65"/>
  </g>
</svg>
