<svg xmlns="http://www.w3.org/2000/svg" width="23.188" height="22.694" viewBox="0 0 23.188 22.694"><defs><style>.a{fill:none;stroke:#ff5100;stroke-linecap:round;stroke-linejoin:round;stroke-width:1.645px;}</style></defs><g transform="translate(0.823 0.823)"><g transform="translate(0)"><path class="a" d="M1732.586,499.947c-1.928-1.58-4.72-3.478-6.547-3.24,0,0-1.127,1.249-4.239,1.249s-4.24-1.249-4.24-1.249c-1.818-.236-4.589,1.639-6.516,3.214" transform="translate(-1711.043 -478.897)"/><path class="a" d="M1729.108,480.984a6.787,6.787,0,0,1,.342,2.132c0,3.756-3.046,8.8-6.8,8.8s-6.8-5.044-6.8-8.8a6.856,6.856,0,0,1,.075-1.014" transform="translate(-1711.892 -476.121)"/><g transform="translate(3.954)"><path class="a" d="M1729.184,479.918a6.8,6.8,0,0,0-6.512-4.842l-.038,0-.042,0a6.8,6.8,0,0,0-6.746,5.962,7.041,7.041,0,0,0,7.51-2.647,5.929,5.929,0,0,0,5.828,1.527Z" transform="translate(-1715.846 -475.076)"/><path class="a" d="M1715.846,481.473a7.063,7.063,0,0,0,8.274-3.936" transform="translate(-1715.846 -475.511)"/></g><line class="a" x1="0.235" y2="3.996" transform="translate(6.664 13.948)"/><line class="a" x2="0.235" y2="3.996" transform="translate(14.612 13.948)"/></g></g></svg>