<svg xmlns="http://www.w3.org/2000/svg" width="135.168" height="117.77" viewBox="0 0 135.168 117.77"><defs><style>.a{fill:none;stroke:#ff5100;stroke-linecap:round;stroke-linejoin:round;stroke-width:3px;}</style></defs><g transform="translate(-2191.293 486.808) rotate(-30)"><g transform="translate(2113.533 725.938)"><rect class="a" width="113.348" height="65.815"/><rect class="a" width="3.656" height="3.656" transform="translate(7.313 7.313)"/><rect class="a" width="3.656" height="3.656" transform="translate(102.379 7.313)"/><rect class="a" width="3.656" height="3.656" transform="translate(7.313 54.846)"/><rect class="a" width="3.656" height="3.656" transform="translate(102.379 54.846)"/><path class="a" d="M2126.5,779.127h76.784V768.158h10.97V738.907h-10.97V727.938H2126.5v10.969h-10.969v29.251H2126.5Zm23.7-34.882c4.3-9.671,14.378-13.35,22.5-8.22s11.206,17.13,6.9,26.8-14.38,13.346-22.5,8.216S2145.888,753.913,2150.2,744.246Z" transform="translate(-2108.22 -720.627)"/><path class="a" d="M2141.176,739.988c0,4.461-3.148,8.077-7.032,8.077a6.426,6.426,0,0,1-4.194-1.591,8.513,8.513,0,0,1-2.84-6.487c0-4.464,3.151-8.08,7.035-8.08S2141.176,735.524,2141.176,739.988Z" transform="translate(-2077.466 -710.081)"/><path class="a" d="M2130.046,736c5.21,1.1,9.006,4.468,9.006,8.454" transform="translate(-2069.668 -699.222)"/><path class="a" d="M2125.558,744.439c0-3.967,3.754-7.32,8.929-8.439" transform="translate(-2081.589 -699.211)"/></g></g></svg>