<svg xmlns="http://www.w3.org/2000/svg" width="82.691" height="107.421" viewBox="0 0 82.691 107.421"><defs><style>.a{fill:none;stroke:#ff5100;stroke-linecap:round;stroke-linejoin:round;stroke-width:3px;}</style></defs><g transform="translate(-1924.997 -681.641)"><g transform="translate(1926.497 683.141)"><g transform="translate(0 16.766)"><circle class="a" cx="37.567" cy="37.567" r="37.567" transform="translate(2.279 12.522)"/><path class="a" d="M1936.468,694.38v-6.261h12.522v6.261" transform="translate(-1902.883 -688.118)"/><path class="a" d="M1930.924,704.441l-4.427-4.427,8.854-8.855,4.427,4.427" transform="translate(-1926.497 -680.916)"/><path class="a" d="M1946.212,695.587l4.427-4.427,8.855,8.855-4.428,4.427" transform="translate(-1879.803 -680.916)"/><path class="a" d="M1965.749,696.483,1936,721.8l4.427,4.427Z" transform="translate(-1903.99 -668.308)"/></g><path class="a" d="M1962.436,702.779s5.746.01,5.834,0a14.787,14.787,0,0,0,.111-1.994,17.647,17.647,0,1,0-35.295,0c0,.67.121,2.011.111,1.981-.007-.014,5.581.01,5.558-.01" transform="translate(-1910.888 -683.141)"/></g></g></svg>