<svg xmlns="http://www.w3.org/2000/svg" width="267.781" height="66.178" viewBox="0 0 267.781 66.178"><defs><style>.a{fill:#fff;}</style></defs><g transform="translate(0 0)"><path class="a" d="M217.067,1523.244c-.281-1.423-.866-2.109-2.4-1.839-2.345.414-2.7,3-2.7,4.793,0,1.842.231,4.274,2.7,3.841a3.1,3.1,0,0,0,2.4-2.872l3.675-.647a7.324,7.324,0,0,1-6.071,6.625c-4.132.728-6.373-1.535-6.373-6.3s2.522-7.867,6.373-8.545c2.5-.44,5.738.144,6.071,4.3Z" transform="translate(-208.297 -1467.101)"/><path class="a" d="M215.246,1518.878l12.211-2.152v14l-3.519.62v-11.054l-5.177.913v11.054l-3.515.62Z" transform="translate(-200.243 -1468.782)"/><path class="a" d="M229.023,1515.827c4.361-.769,6.937,1.883,6.937,6.2s-2.576,7.88-6.937,8.649c-4.283.756-6.935-1.882-6.935-6.2A8.4,8.4,0,0,1,229.023,1515.827Zm0,11.74c2.55-.451,3.264-2.683,3.264-4.894s-.715-4.191-3.264-3.74c-2.422.425-3.262,2.759-3.262,4.89S226.6,1527.993,229.023,1527.567Z" transform="translate(-192.314 -1469.977)"/><path class="a" d="M229.65,1516.161l3.368-.594v2l.05-.009a5.168,5.168,0,0,1,4.057-3.137c2.472-.434,5.659.712,5.659,6.162,0,4.527-1.859,8.016-5.788,8.707a3.388,3.388,0,0,1-3.774-1.492l-.05.007v7.161l-3.521.62Zm3.392,6.406c0,1.576.46,4.236,3.033,3.782s3.038-3.275,3.038-4.853c0-1.974-.792-4.02-3.038-3.623S233.042,1520.593,233.042,1522.566Z" transform="translate(-183.55 -1471.548)"/><path class="a" d="M240.481,1517.336l-4.106.723v-2.952l11.73-2.068v2.951l-4.1.723v11.054l-3.519.622Z" transform="translate(-175.756 -1473.055)"/><path class="a" d="M251.011,1526.458c-1.608,5.1-1.988,6.17-5.484,6.785a13.559,13.559,0,0,1-1.375.162v-2.947c.281-.024.764-.058,1.045-.108a2.431,2.431,0,0,0,1.988-2.243l-4.972-13.865,3.953-.7,2.908,9.806.05-.009,2.781-10.808,3.772-.667Z" transform="translate(-168.99 -1474.412)"/><path class="a" d="M249.446,1512.476l7.392-1.3c2.5-.44,4.771-.078,4.771,2.845a3.413,3.413,0,0,1-1.611,3.1,2.534,2.534,0,0,1,2.092,2.763,5.242,5.242,0,0,1-4.665,5.192l-7.979,1.407Zm3.517,4.881,3.085-.544c1.606-.281,2.04-.887,2.04-1.861,0-.816-.458-1.338-1.937-1.079l-3.189.563Zm0,5.924,3.085-.544c2.04-.361,2.373-1.423,2.373-2.157,0-1.4-.665-1.647-2.373-1.345l-3.085.542Z" transform="translate(-160.607 -1475.399)"/><path class="a" d="M268.106,1520.559c0,1.684.38,1.984.814,2.04v.579l-3.9.689a3.781,3.781,0,0,1-.33-1.574,6.239,6.239,0,0,1-4.335,2.818c-2.424.427-4.184-.737-4.184-3.58a5.151,5.151,0,0,1,3.724-4.972l3.443-1.134c.481-.166,1.25-.434,1.25-1.379,0-.922-.512-1.488-2.168-1.2-1.889.335-2.193,1.231-2.347,2.336l-3.519.62c.024-1.03.689-4.937,5.788-5.887,4.845-.855,5.764,1.22,5.764,3.221Zm-3.519-3.461a5.369,5.369,0,0,1-1.5.846l-.943.35c-1.632.6-2.448,1.194-2.448,2.616,0,1.211.788,1.6,1.783,1.421a3.738,3.738,0,0,0,3.113-3.813Z" transform="translate(-152.816 -1476.905)"/><path class="a" d="M263.189,1513.39l3.519-.62v8.634l.05-.009,4.946-9.506,3.7-.652v14l-3.519.619v-8.448l-.05.009-4.8,9.294-3.849.678Zm10.251-7.677c0,2.712-1.682,4.089-4.156,4.525s-4.158-.348-4.158-3.059l1.429-.25c.229,1.172,1.352,1.5,2.729,1.257a3.015,3.015,0,0,0,2.729-2.219Z" transform="translate(-144.68 -1481.546)"/><path class="a" d="M273.7,1508.574l3.517-.622v8.634l.05-.009,4.946-9.506,3.7-.652v14.005l-3.519.619V1512.6l-.05.007-4.8,9.294-3.847.68Z" transform="translate(-132.503 -1480.728)"/><path class="a" d="M283.6,1518.071l1.531-.27a45.346,45.346,0,0,0,2.066-11.421l10.607-1.87v11.056l1.583-.281v6.317l-3.316.585v-3.37l-9.154,1.615v3.37l-3.316.585Zm10.685-1.885v-8.107l-4.029.71a45.607,45.607,0,0,1-1.58,8.385Z" transform="translate(-121.027 -1482.939)"/><path class="a" d="M303.356,1514.342c0,1.684.382,1.986.818,2.04v.578l-3.9.689a3.8,3.8,0,0,1-.33-1.576,6.232,6.232,0,0,1-4.335,2.82c-2.422.427-4.184-.736-4.184-3.579a5.156,5.156,0,0,1,3.724-4.975l3.444-1.131c.484-.164,1.25-.432,1.25-1.38,0-.922-.512-1.488-2.168-1.2-1.887.334-2.193,1.23-2.347,2.336l-3.519.622c.026-1.032.689-4.94,5.788-5.89,4.845-.853,5.762,1.219,5.762,3.221Zm-3.517-3.461a5.353,5.353,0,0,1-1.507.846l-.941.35c-1.632.6-2.448,1.194-2.448,2.615,0,1.213.788,1.6,1.783,1.423a3.736,3.736,0,0,0,3.113-3.813Z" transform="translate(-111.961 -1484.108)"/><path class="a" d="M298.393,1504.04l3.37-.6v2l.047-.009a5.166,5.166,0,0,1,4.057-3.135c2.472-.436,5.659.713,5.659,6.162,0,4.527-1.859,8.014-5.788,8.707a3.388,3.388,0,0,1-3.774-1.5l-.05.011v7.161l-3.521.62Zm3.394,6.4c0,1.578.458,4.238,3.033,3.785s3.035-3.275,3.035-4.854c0-1.975-.79-4.02-3.035-3.623S301.787,1508.47,301.787,1510.444Z" transform="translate(-103.881 -1485.596)"/><path class="a" d="M318.23,1514.784l-3.545.626v-5.16l-2.295.406c-2.014.354-2.854.685-2.932,2.6l-.05,1.351a6.24,6.24,0,0,1-.307,1.792l-3.724.656a5.353,5.353,0,0,0,.561-2.206l.179-1.717c.151-1.526.356-2.193,1.913-2.943a2.491,2.491,0,0,1-1.889-1.114,3.26,3.26,0,0,1-.484-1.863,4.754,4.754,0,0,1,1.965-3.953,8.374,8.374,0,0,1,3.314-1.189l7.293-1.285Zm-3.545-10.639-2.83.5c-1.2.209-2.5.441-2.5,2.23,0,1.738,1.276,1.513,2.394,1.315l2.934-.516Z" transform="translate(-95.785 -1487.262)"/><path class="a" d="M312.93,1501.28l7.394-1.3c2.5-.44,4.769-.078,4.769,2.844a3.42,3.42,0,0,1-1.608,3.1,2.534,2.534,0,0,1,2.092,2.766,5.239,5.239,0,0,1-4.668,5.19l-7.979,1.408Zm3.519,4.883,3.085-.544c1.606-.283,2.038-.887,2.038-1.861,0-.814-.458-1.339-1.934-1.079l-3.189.563Zm0,5.922,3.085-.544c2.038-.358,2.37-1.418,2.37-2.155,0-1.395-.663-1.647-2.37-1.347l-3.085.544Z" transform="translate(-87.033 -1488.372)"/><path class="a" d="M331.585,1509.363c0,1.686.384,1.986.818,2.042v.579l-3.9.687a3.8,3.8,0,0,1-.33-1.572,6.242,6.242,0,0,1-4.335,2.82c-2.422.425-4.18-.738-4.18-3.584a5.147,5.147,0,0,1,3.72-4.97l3.444-1.136c.486-.162,1.25-.432,1.25-1.377,0-.922-.51-1.49-2.168-1.2-1.887.333-2.191,1.226-2.347,2.334l-3.519.62c.026-1.03.691-4.935,5.788-5.887,4.845-.855,5.762,1.22,5.762,3.221Zm-3.517-3.458a5.315,5.315,0,0,1-1.5.844l-.943.35c-1.63.607-2.446,1.2-2.446,2.617,0,1.213.788,1.6,1.783,1.423a3.736,3.736,0,0,0,3.111-3.813Z" transform="translate(-79.239 -1489.878)"/><path class="a" d="M326.674,1502.2l3.517-.62v8.634l.054-.009,4.946-9.506,3.694-.654v14l-3.517.622v-8.448l-.052.009-4.8,9.292-3.847.68Zm10.251-7.677c0,2.711-1.684,4.087-4.156,4.525s-4.158-.347-4.158-3.057l1.429-.255c.227,1.172,1.352,1.5,2.729,1.256a3.007,3.007,0,0,0,2.727-2.217Z" transform="translate(-71.104 -1494.519)"/></g></svg>