<svg xmlns="http://www.w3.org/2000/svg" xmlns:xlink="http://www.w3.org/1999/xlink" width="60.632" height="65.467" viewBox="0 0 60.632 65.467"><defs><style>.a{fill:#ff5100;}.b{clip-path:url(#a);}.c{fill:none;stroke:#fff;stroke-linejoin:round;stroke-width:2px;}</style><clipPath id="a"><path class="a" d="M1627.742,1326.042l-60.632,11.116v-54.351l60.632-11.116Z" transform="translate(-914.11 2153.809)"/></clipPath></defs><g class="b" transform="translate(-653 -3425.5)"><path class="a" d="M1627.742,1326.042l-60.632,11.116v-54.351l60.632-11.116Z" transform="translate(-914.11 2153.809)"/><g transform="translate(-2279.782 1871.102)"><g transform="translate(2932.782 1556.133)"><path class="c" d="M2932.782,1602.487h16.744V1569h-16.744" transform="translate(-2932.782 -1546.323)"/><path class="c" d="M2941.782,1607.01h3.768a48.582,48.582,0,0,1,7.853.906l5.994,1.214a24.337,24.337,0,0,0,8.729-.138l3.976-.936a7.494,7.494,0,0,0,5.213-5.534l2.06-10.073a32.387,32.387,0,0,0,.039-8.985l-.33-2.008a5.46,5.46,0,0,0-5.194-4.41h-9.884a3.687,3.687,0,0,1-3.751-4.411l.541-3.32c.4-2.473,1.641-6.225,1.641-8.337s-.742-4.251-2.759-4.752-4.3,1.038-5.076,3.421l-4.255,13.067c-.778,2.383-2.935,4.8-4.8,5.374l-3.384,1.042" transform="translate(-2925.92 -1556.133)"/></g></g></g></svg>